# xmcd
#
# Track frame offsets: 
#        150
#        23859
#        30401
#        77704
#        99874
#        116025
#        163980
#        189746
#        207820
#        255927
#        287532
#        308643
#        358604
#
# Disc length: 4791 seconds
#
# Revision: 0
# Processed by: cddbd v1.5.1PL2 Copyright (c) Steve Scherf et al.
# Submitted via: ExactAudioCopy v0.95a4
#
DISCID=a712b50d
DTITLE=Misc - Dead Air Blues Band Reunion 2003
DYEAR=2003
DGENRE=Blues
TTITLE0=Krypton City Blues Review - You Say You Love Me So Much Baby (
TTITLE0=live)
TTITLE1=Ed Coffey - Introduction
TTITLE2=Krypton City Blues Review - Caledonia (live)
TTITLE3=Krypton City Blues Review - Rise Above It (live)
TTITLE4=Rosie and The Naturals - Messin With The Kid (live)
TTITLE5=Rosie and The Naturals - You Upset Me Baby (live)
TTITLE6=Stan Middleton Band - Time Machine (live)
TTITLE7=Stan Middleton Band - Lawyers, Guns, And Money (live)
TTITLE8=Stan Middleton Band - Get On Up (Sex Machine) (live)
TTITLE9=Guitar Blane and Krypton City Blues Review - Red House (live)
TTITLE10=Krypton City Blues Review - Killing Floor (live)
TTITLE11=Krypton City Blues Review - That's What You Got (live)
TTITLE12=Ed Coffey - Outroduction
EXTD=
EXTT0=
EXTT1=
EXTT2=
EXTT3=
EXTT4=
EXTT5=
EXTT6=
EXTT7=
EXTT8=
EXTT9=
EXTT10=
EXTT11=
EXTT12=
PLAYORDER=
